<svg 
 xmlns="http://www.w3.org/2000/svg"
 xmlns:xlink="http://www.w3.org/1999/xlink"
 width="155px" height="155px">
<defs>
<linearGradient id="PSgrad_0" x1="0%" x2="50%" y1="0%" y2="86.603%">
  <stop offset="0%" stop-color="rgb(15,135,120)" stop-opacity="1" />
  <stop offset="100%" stop-color="rgb(16,103,91)" stop-opacity="1" />
</linearGradient>

</defs>
<path fill-rule="evenodd"  fill="rgb(0, 0, 0)"
 d="M134.333,59.391 C132.907,59.391 131.750,58.235 131.750,56.809 L131.750,54.227 C131.750,52.801 132.907,51.645 134.333,51.645 C135.760,51.645 136.917,52.801 136.917,54.227 L136.917,56.809 C136.917,58.235 135.760,59.391 134.333,59.391 ZM134.333,72.302 C132.906,72.302 131.750,71.147 131.750,69.720 L131.750,67.138 C131.750,65.712 132.906,64.556 134.333,64.556 C135.760,64.556 136.916,65.712 136.916,67.138 L136.916,69.720 C136.916,71.147 135.760,72.302 134.333,72.302 ZM126.583,67.138 L126.583,69.720 C126.583,71.147 125.427,72.302 124.000,72.302 C122.573,72.302 121.417,71.147 121.417,69.720 L121.417,67.138 C121.417,65.712 122.573,64.556 124.000,64.556 C125.427,64.556 126.583,65.712 126.583,67.138 ZM121.417,54.227 C121.417,52.801 122.573,51.645 124.000,51.645 C125.427,51.645 126.583,52.801 126.583,54.227 L126.583,56.809 C126.583,58.235 125.427,59.391 124.000,59.391 C122.573,59.391 121.417,58.235 121.417,56.809 L121.417,54.227 ZM113.667,64.556 C115.093,64.556 116.250,65.712 116.250,67.138 L116.250,69.720 C116.250,71.146 115.093,72.302 113.667,72.302 C112.240,72.302 111.083,71.146 111.083,69.720 L111.083,67.138 C111.083,65.711 112.240,64.556 113.667,64.556 ZM111.083,54.227 C111.083,52.801 112.240,51.645 113.667,51.645 C115.093,51.645 116.250,52.801 116.250,54.227 L116.250,56.809 C116.250,58.235 115.093,59.391 113.667,59.391 C112.240,59.391 111.083,58.235 111.083,56.809 L111.083,54.227 ZM152.416,10.329 L149.833,10.329 L149.833,12.911 C149.833,14.337 148.677,15.493 147.250,15.493 C145.823,15.493 144.667,14.337 144.667,12.911 L144.667,10.329 L105.917,10.329 L105.917,77.467 L142.083,77.467 L142.083,36.151 C142.083,33.569 141.593,20.658 131.750,20.658 L126.583,20.658 L126.583,31.245 C132.598,32.472 136.918,37.761 136.917,43.898 C136.917,45.324 135.760,46.480 134.333,46.480 L113.667,46.480 C112.240,46.480 111.083,45.324 111.083,43.898 C111.082,37.761 115.402,32.472 121.417,31.245 L121.417,18.075 C121.417,16.649 122.573,15.493 124.000,15.493 L131.750,15.493 C143.194,15.493 147.250,26.623 147.250,36.151 L147.250,77.467 C151.530,77.467 155.000,80.935 155.000,85.214 C155.000,89.492 151.530,92.961 147.250,92.961 C146.501,111.759 138.441,131.694 126.376,137.608 C128.183,139.537 129.182,142.085 129.166,144.728 C129.132,150.432 124.479,155.029 118.772,154.995 C113.065,154.961 108.466,150.310 108.500,144.605 C108.519,142.786 109.018,141.005 109.947,139.441 L45.027,139.441 C47.344,143.387 46.786,148.387 43.658,151.727 C39.757,155.891 33.218,156.106 29.052,152.207 C24.886,148.308 24.671,141.771 28.572,137.607 C16.507,131.694 8.447,111.759 7.750,92.960 C3.470,92.960 -0.000,89.492 -0.000,85.214 C-0.000,80.935 3.470,77.467 7.750,77.467 L49.083,77.467 L49.083,10.328 L10.333,10.328 L10.333,12.911 C10.333,14.337 9.177,15.493 7.750,15.493 C6.323,15.493 5.167,14.337 5.167,12.911 L5.167,10.328 L2.583,10.328 C1.157,10.328 0.000,9.173 0.000,7.746 C0.000,6.320 1.157,5.164 2.583,5.164 L5.167,5.164 L5.167,2.582 C5.167,1.156 6.323,-0.000 7.750,-0.000 C9.177,-0.000 10.333,1.156 10.333,2.582 L10.333,5.164 L144.667,5.164 L144.667,2.582 C144.667,1.156 145.823,-0.000 147.250,-0.000 C148.677,-0.000 149.833,1.156 149.833,2.582 L149.833,5.164 L152.416,5.164 C153.843,5.164 155.000,6.321 155.000,7.746 C155.000,9.173 153.843,10.329 152.416,10.329 ZM116.689,41.316 L131.311,41.316 C130.531,39.100 128.788,37.358 126.572,36.579 C122.534,35.159 118.110,37.280 116.689,41.316 ZM147.250,87.796 C148.677,87.796 149.833,86.639 149.833,85.214 C149.833,83.788 148.677,82.631 147.250,82.631 L105.917,82.631 L105.917,87.796 L147.250,87.796 ZM118.833,149.770 C121.687,149.770 124.000,147.457 124.000,144.605 C124.000,141.753 121.687,139.440 118.833,139.440 C115.980,139.440 113.667,141.753 113.667,144.605 C113.667,147.457 115.980,149.770 118.833,149.770 ZM36.167,149.770 C39.020,149.770 41.333,147.457 41.333,144.605 C41.333,141.753 39.020,139.440 36.167,139.440 C33.313,139.440 31.000,141.753 31.000,144.605 C31.000,147.457 33.313,149.770 36.167,149.770 ZM49.083,82.632 L7.750,82.632 C6.323,82.632 5.167,83.788 5.167,85.214 C5.167,86.640 6.323,87.796 7.750,87.796 L49.083,87.796 L49.083,82.632 ZM59.417,10.329 L54.250,10.329 L54.250,12.911 C54.250,14.337 55.407,15.493 56.833,15.493 C58.260,15.493 59.417,14.337 59.417,12.911 L59.417,10.329 ZM69.750,10.329 L64.584,10.329 L64.584,12.911 C64.584,14.337 65.740,15.493 67.167,15.493 C68.594,15.493 69.750,14.337 69.750,12.911 L69.750,10.329 ZM80.084,10.329 L74.917,10.329 L74.917,12.911 C74.917,14.337 76.073,15.493 77.500,15.493 C78.927,15.493 80.084,14.337 80.084,12.911 L80.084,10.329 ZM90.417,10.329 L85.250,10.329 L85.250,12.911 C85.250,14.337 86.407,15.493 87.833,15.493 C89.260,15.493 90.417,14.337 90.417,12.911 L90.417,10.329 ZM82.666,18.695 C79.725,21.326 75.275,21.326 72.333,18.695 C69.392,21.326 64.942,21.326 62.000,18.695 C59.902,20.608 56.911,21.186 54.251,20.193 L54.251,103.290 C54.251,104.716 55.408,105.872 56.835,105.872 C58.261,105.872 59.418,104.715 59.418,103.290 C59.418,101.864 60.575,100.707 62.001,100.707 C63.428,100.707 64.584,101.864 64.584,103.290 C64.584,104.716 65.741,105.872 67.168,105.872 C68.594,105.872 69.751,104.715 69.751,103.290 C69.751,101.864 70.907,100.707 72.334,100.707 C73.761,100.707 74.917,101.864 74.917,103.290 C74.917,104.716 76.074,105.872 77.501,105.872 C78.927,105.872 80.084,104.715 80.084,103.290 C80.084,101.864 81.240,100.707 82.667,100.707 C84.094,100.707 85.250,101.864 85.250,103.290 C85.250,104.716 86.407,105.872 87.834,105.872 C89.260,105.872 90.417,104.715 90.417,103.290 C90.417,101.864 91.573,100.707 93.000,100.707 C94.427,100.707 95.583,101.864 95.583,103.290 C95.583,104.716 96.740,105.872 98.166,105.872 C99.593,105.872 100.750,104.716 100.750,103.290 L100.750,20.193 C98.090,21.186 95.098,20.608 93.000,18.695 C90.058,21.326 85.608,21.326 82.666,18.695 ZM100.750,10.329 L95.584,10.329 L95.584,12.911 C95.584,14.337 96.740,15.493 98.167,15.493 C99.594,15.493 100.750,14.337 100.750,12.911 L100.750,10.329 ZM93.000,109.048 C90.058,111.678 85.609,111.678 82.667,109.048 C79.725,111.678 75.275,111.678 72.333,109.048 C69.392,111.678 64.942,111.678 62.000,109.048 C60.583,110.314 58.750,111.016 56.849,111.020 C52.569,111.029 49.092,107.568 49.084,103.289 L49.084,92.960 L12.917,92.960 C13.821,114.548 24.671,134.276 36.167,134.276 L118.833,134.276 C130.329,134.276 141.179,114.548 142.083,92.960 L105.917,92.960 L105.917,103.289 C105.913,105.189 105.210,107.022 103.943,108.438 C101.090,111.627 96.190,111.900 93.000,109.048 ZM93.000,92.960 C91.573,92.960 90.417,91.805 90.417,90.378 L90.417,30.987 C90.417,29.561 91.573,28.405 93.000,28.405 C94.427,28.405 95.583,29.561 95.583,30.987 L95.583,90.378 C95.583,91.805 94.427,92.960 93.000,92.960 ZM82.667,92.960 C81.240,92.960 80.084,91.805 80.084,90.378 L80.084,30.987 C80.084,29.561 81.240,28.405 82.667,28.405 C84.093,28.405 85.250,29.561 85.250,30.987 L85.250,90.378 C85.250,91.805 84.094,92.960 82.667,92.960 ZM72.333,92.960 C70.907,92.960 69.750,91.805 69.750,90.378 L69.750,30.987 C69.750,29.561 70.907,28.405 72.333,28.405 C73.760,28.405 74.917,29.561 74.917,30.987 L74.917,90.378 C74.917,91.805 73.760,92.960 72.333,92.960 ZM62.000,92.960 C60.573,92.960 59.417,91.805 59.417,90.378 L59.417,30.987 C59.417,29.561 60.574,28.405 62.000,28.405 C63.426,28.405 64.583,29.561 64.583,30.987 L64.583,90.378 C64.583,91.805 63.427,92.960 62.000,92.960 Z"/>
<path fill="url(#PSgrad_0)"
 d="M134.333,59.391 C132.907,59.391 131.750,58.235 131.750,56.809 L131.750,54.227 C131.750,52.801 132.907,51.645 134.333,51.645 C135.760,51.645 136.917,52.801 136.917,54.227 L136.917,56.809 C136.917,58.235 135.760,59.391 134.333,59.391 ZM134.333,72.302 C132.906,72.302 131.750,71.147 131.750,69.720 L131.750,67.138 C131.750,65.712 132.906,64.556 134.333,64.556 C135.760,64.556 136.916,65.712 136.916,67.138 L136.916,69.720 C136.916,71.147 135.760,72.302 134.333,72.302 ZM126.583,67.138 L126.583,69.720 C126.583,71.147 125.427,72.302 124.000,72.302 C122.573,72.302 121.417,71.147 121.417,69.720 L121.417,67.138 C121.417,65.712 122.573,64.556 124.000,64.556 C125.427,64.556 126.583,65.712 126.583,67.138 ZM121.417,54.227 C121.417,52.801 122.573,51.645 124.000,51.645 C125.427,51.645 126.583,52.801 126.583,54.227 L126.583,56.809 C126.583,58.235 125.427,59.391 124.000,59.391 C122.573,59.391 121.417,58.235 121.417,56.809 L121.417,54.227 ZM113.667,64.556 C115.093,64.556 116.250,65.712 116.250,67.138 L116.250,69.720 C116.250,71.146 115.093,72.302 113.667,72.302 C112.240,72.302 111.083,71.146 111.083,69.720 L111.083,67.138 C111.083,65.711 112.240,64.556 113.667,64.556 ZM111.083,54.227 C111.083,52.801 112.240,51.645 113.667,51.645 C115.093,51.645 116.250,52.801 116.250,54.227 L116.250,56.809 C116.250,58.235 115.093,59.391 113.667,59.391 C112.240,59.391 111.083,58.235 111.083,56.809 L111.083,54.227 ZM152.416,10.329 L149.833,10.329 L149.833,12.911 C149.833,14.337 148.677,15.493 147.250,15.493 C145.823,15.493 144.667,14.337 144.667,12.911 L144.667,10.329 L105.917,10.329 L105.917,77.467 L142.083,77.467 L142.083,36.151 C142.083,33.569 141.593,20.658 131.750,20.658 L126.583,20.658 L126.583,31.245 C132.598,32.472 136.918,37.761 136.917,43.898 C136.917,45.324 135.760,46.480 134.333,46.480 L113.667,46.480 C112.240,46.480 111.083,45.324 111.083,43.898 C111.082,37.761 115.402,32.472 121.417,31.245 L121.417,18.075 C121.417,16.649 122.573,15.493 124.000,15.493 L131.750,15.493 C143.194,15.493 147.250,26.623 147.250,36.151 L147.250,77.467 C151.530,77.467 155.000,80.935 155.000,85.214 C155.000,89.492 151.530,92.961 147.250,92.961 C146.501,111.759 138.441,131.694 126.376,137.608 C128.183,139.537 129.182,142.085 129.166,144.728 C129.132,150.432 124.479,155.029 118.772,154.995 C113.065,154.961 108.466,150.310 108.500,144.605 C108.519,142.786 109.018,141.005 109.947,139.441 L45.027,139.441 C47.344,143.387 46.786,148.387 43.658,151.727 C39.757,155.891 33.218,156.106 29.052,152.207 C24.886,148.308 24.671,141.771 28.572,137.607 C16.507,131.694 8.447,111.759 7.750,92.960 C3.470,92.960 -0.000,89.492 -0.000,85.214 C-0.000,80.935 3.470,77.467 7.750,77.467 L49.083,77.467 L49.083,10.328 L10.333,10.328 L10.333,12.911 C10.333,14.337 9.177,15.493 7.750,15.493 C6.323,15.493 5.167,14.337 5.167,12.911 L5.167,10.328 L2.583,10.328 C1.157,10.328 0.000,9.173 0.000,7.746 C0.000,6.320 1.157,5.164 2.583,5.164 L5.167,5.164 L5.167,2.582 C5.167,1.156 6.323,-0.000 7.750,-0.000 C9.177,-0.000 10.333,1.156 10.333,2.582 L10.333,5.164 L144.667,5.164 L144.667,2.582 C144.667,1.156 145.823,-0.000 147.250,-0.000 C148.677,-0.000 149.833,1.156 149.833,2.582 L149.833,5.164 L152.416,5.164 C153.843,5.164 155.000,6.321 155.000,7.746 C155.000,9.173 153.843,10.329 152.416,10.329 ZM116.689,41.316 L131.311,41.316 C130.531,39.100 128.788,37.358 126.572,36.579 C122.534,35.159 118.110,37.280 116.689,41.316 ZM147.250,87.796 C148.677,87.796 149.833,86.639 149.833,85.214 C149.833,83.788 148.677,82.631 147.250,82.631 L105.917,82.631 L105.917,87.796 L147.250,87.796 ZM118.833,149.770 C121.687,149.770 124.000,147.457 124.000,144.605 C124.000,141.753 121.687,139.440 118.833,139.440 C115.980,139.440 113.667,141.753 113.667,144.605 C113.667,147.457 115.980,149.770 118.833,149.770 ZM36.167,149.770 C39.020,149.770 41.333,147.457 41.333,144.605 C41.333,141.753 39.020,139.440 36.167,139.440 C33.313,139.440 31.000,141.753 31.000,144.605 C31.000,147.457 33.313,149.770 36.167,149.770 ZM49.083,82.632 L7.750,82.632 C6.323,82.632 5.167,83.788 5.167,85.214 C5.167,86.640 6.323,87.796 7.750,87.796 L49.083,87.796 L49.083,82.632 ZM59.417,10.329 L54.250,10.329 L54.250,12.911 C54.250,14.337 55.407,15.493 56.833,15.493 C58.260,15.493 59.417,14.337 59.417,12.911 L59.417,10.329 ZM69.750,10.329 L64.584,10.329 L64.584,12.911 C64.584,14.337 65.740,15.493 67.167,15.493 C68.594,15.493 69.750,14.337 69.750,12.911 L69.750,10.329 ZM80.084,10.329 L74.917,10.329 L74.917,12.911 C74.917,14.337 76.073,15.493 77.500,15.493 C78.927,15.493 80.084,14.337 80.084,12.911 L80.084,10.329 ZM90.417,10.329 L85.250,10.329 L85.250,12.911 C85.250,14.337 86.407,15.493 87.833,15.493 C89.260,15.493 90.417,14.337 90.417,12.911 L90.417,10.329 ZM82.666,18.695 C79.725,21.326 75.275,21.326 72.333,18.695 C69.392,21.326 64.942,21.326 62.000,18.695 C59.902,20.608 56.911,21.186 54.251,20.193 L54.251,103.290 C54.251,104.716 55.408,105.872 56.835,105.872 C58.261,105.872 59.418,104.715 59.418,103.290 C59.418,101.864 60.575,100.707 62.001,100.707 C63.428,100.707 64.584,101.864 64.584,103.290 C64.584,104.716 65.741,105.872 67.168,105.872 C68.594,105.872 69.751,104.715 69.751,103.290 C69.751,101.864 70.907,100.707 72.334,100.707 C73.761,100.707 74.917,101.864 74.917,103.290 C74.917,104.716 76.074,105.872 77.501,105.872 C78.927,105.872 80.084,104.715 80.084,103.290 C80.084,101.864 81.240,100.707 82.667,100.707 C84.094,100.707 85.250,101.864 85.250,103.290 C85.250,104.716 86.407,105.872 87.834,105.872 C89.260,105.872 90.417,104.715 90.417,103.290 C90.417,101.864 91.573,100.707 93.000,100.707 C94.427,100.707 95.583,101.864 95.583,103.290 C95.583,104.716 96.740,105.872 98.166,105.872 C99.593,105.872 100.750,104.716 100.750,103.290 L100.750,20.193 C98.090,21.186 95.098,20.608 93.000,18.695 C90.058,21.326 85.608,21.326 82.666,18.695 ZM100.750,10.329 L95.584,10.329 L95.584,12.911 C95.584,14.337 96.740,15.493 98.167,15.493 C99.594,15.493 100.750,14.337 100.750,12.911 L100.750,10.329 ZM93.000,109.048 C90.058,111.678 85.609,111.678 82.667,109.048 C79.725,111.678 75.275,111.678 72.333,109.048 C69.392,111.678 64.942,111.678 62.000,109.048 C60.583,110.314 58.750,111.016 56.849,111.020 C52.569,111.029 49.092,107.568 49.084,103.289 L49.084,92.960 L12.917,92.960 C13.821,114.548 24.671,134.276 36.167,134.276 L118.833,134.276 C130.329,134.276 141.179,114.548 142.083,92.960 L105.917,92.960 L105.917,103.289 C105.913,105.189 105.210,107.022 103.943,108.438 C101.090,111.627 96.190,111.900 93.000,109.048 ZM93.000,92.960 C91.573,92.960 90.417,91.805 90.417,90.378 L90.417,30.987 C90.417,29.561 91.573,28.405 93.000,28.405 C94.427,28.405 95.583,29.561 95.583,30.987 L95.583,90.378 C95.583,91.805 94.427,92.960 93.000,92.960 ZM82.667,92.960 C81.240,92.960 80.084,91.805 80.084,90.378 L80.084,30.987 C80.084,29.561 81.240,28.405 82.667,28.405 C84.093,28.405 85.250,29.561 85.250,30.987 L85.250,90.378 C85.250,91.805 84.094,92.960 82.667,92.960 ZM72.333,92.960 C70.907,92.960 69.750,91.805 69.750,90.378 L69.750,30.987 C69.750,29.561 70.907,28.405 72.333,28.405 C73.760,28.405 74.917,29.561 74.917,30.987 L74.917,90.378 C74.917,91.805 73.760,92.960 72.333,92.960 ZM62.000,92.960 C60.573,92.960 59.417,91.805 59.417,90.378 L59.417,30.987 C59.417,29.561 60.574,28.405 62.000,28.405 C63.426,28.405 64.583,29.561 64.583,30.987 L64.583,90.378 C64.583,91.805 63.427,92.960 62.000,92.960 Z"/>
</svg>