<svg 
 xmlns="http://www.w3.org/2000/svg"
 xmlns:xlink="http://www.w3.org/1999/xlink"
 width="155px" height="155px">
<defs>
<linearGradient id="PSgrad_0" x1="0%" x2="50%" y1="0%" y2="86.603%">
  <stop offset="0%" stop-color="rgb(15,135,120)" stop-opacity="1" />
  <stop offset="100%" stop-color="rgb(16,103,91)" stop-opacity="1" />
</linearGradient>

</defs>
<path fill-rule="evenodd"  fill="rgb(0, 0, 0)"
 d="M155.000,80.083 L155.000,90.417 C155.000,91.843 153.843,93.000 152.417,93.000 L149.833,93.000 L149.833,152.416 C149.833,153.843 148.677,155.000 147.250,155.000 L136.917,155.000 C135.490,155.000 134.333,153.843 134.333,152.416 L134.333,118.833 L20.667,118.833 L20.667,152.416 C20.667,153.843 19.510,155.000 18.083,155.000 L7.750,155.000 C6.323,155.000 5.167,153.843 5.167,152.416 L5.167,93.000 L2.583,93.000 C1.157,93.000 -0.000,91.843 -0.000,90.417 L-0.000,80.083 C-0.000,78.656 1.157,77.500 2.583,77.500 L16.647,77.500 C6.522,72.887 0.017,62.793 -0.000,51.666 L-0.000,43.916 C-0.000,42.490 1.157,41.333 2.583,41.333 L28.073,41.333 L25.854,23.570 C25.841,23.464 25.834,23.357 25.834,23.250 C25.834,21.824 26.990,20.667 28.417,20.666 L49.083,20.666 C49.190,20.666 49.297,20.673 49.403,20.686 C50.819,20.863 51.823,22.154 51.646,23.570 L49.427,41.333 L69.750,41.333 L69.750,23.250 C69.750,10.409 80.160,-0.000 93.000,-0.000 C105.841,-0.000 116.250,10.409 116.250,23.250 C116.250,24.676 115.093,25.833 113.667,25.833 L103.333,25.833 C101.907,25.833 100.750,24.676 100.750,23.250 C100.750,18.969 97.280,15.500 93.000,15.500 C88.720,15.500 85.250,18.969 85.250,23.250 L85.250,41.333 L152.417,41.333 C153.843,41.333 155.000,42.490 155.000,43.916 L155.000,51.666 C154.983,62.793 148.478,72.887 138.353,77.500 L152.417,77.500 C153.843,77.500 155.000,78.656 155.000,80.083 ZM139.500,149.833 L144.667,149.833 L144.667,93.000 L139.500,93.000 L139.500,149.833 ZM20.667,113.666 L134.333,113.666 L134.333,93.000 L20.667,93.000 L20.667,113.666 ZM10.333,149.833 L15.500,149.833 L15.500,93.000 L10.333,93.000 L10.333,149.833 ZM31.343,25.833 L33.281,41.333 L44.219,41.333 L46.156,25.833 L31.343,25.833 ZM90.430,10.579 C97.421,9.159 104.239,13.675 105.658,20.666 L110.900,20.666 C109.621,11.758 101.986,5.145 92.986,5.152 C82.999,5.160 74.909,13.262 74.917,23.250 L74.917,41.333 L80.083,41.333 L80.083,23.250 C80.077,17.102 84.405,11.802 90.430,10.579 ZM149.833,51.666 L149.833,46.500 L5.167,46.500 L5.167,51.666 C5.181,64.501 15.582,74.902 28.417,74.916 L126.583,74.916 C139.418,74.902 149.819,64.501 149.833,51.666 ZM149.833,82.666 L5.167,82.666 L5.167,87.833 L149.833,87.833 L149.833,82.666 ZM69.750,98.166 L85.250,98.166 L85.250,103.333 L69.750,103.333 L69.750,98.166 Z"/>
<path fill="url(#PSgrad_0)"
 d="M155.000,80.083 L155.000,90.417 C155.000,91.843 153.843,93.000 152.417,93.000 L149.833,93.000 L149.833,152.416 C149.833,153.843 148.677,155.000 147.250,155.000 L136.917,155.000 C135.490,155.000 134.333,153.843 134.333,152.416 L134.333,118.833 L20.667,118.833 L20.667,152.416 C20.667,153.843 19.510,155.000 18.083,155.000 L7.750,155.000 C6.323,155.000 5.167,153.843 5.167,152.416 L5.167,93.000 L2.583,93.000 C1.157,93.000 -0.000,91.843 -0.000,90.417 L-0.000,80.083 C-0.000,78.656 1.157,77.500 2.583,77.500 L16.647,77.500 C6.522,72.887 0.017,62.793 -0.000,51.666 L-0.000,43.916 C-0.000,42.490 1.157,41.333 2.583,41.333 L28.073,41.333 L25.854,23.570 C25.841,23.464 25.834,23.357 25.834,23.250 C25.834,21.824 26.990,20.667 28.417,20.666 L49.083,20.666 C49.190,20.666 49.297,20.673 49.403,20.686 C50.819,20.863 51.823,22.154 51.646,23.570 L49.427,41.333 L69.750,41.333 L69.750,23.250 C69.750,10.409 80.160,-0.000 93.000,-0.000 C105.841,-0.000 116.250,10.409 116.250,23.250 C116.250,24.676 115.093,25.833 113.667,25.833 L103.333,25.833 C101.907,25.833 100.750,24.676 100.750,23.250 C100.750,18.969 97.280,15.500 93.000,15.500 C88.720,15.500 85.250,18.969 85.250,23.250 L85.250,41.333 L152.417,41.333 C153.843,41.333 155.000,42.490 155.000,43.916 L155.000,51.666 C154.983,62.793 148.478,72.887 138.353,77.500 L152.417,77.500 C153.843,77.500 155.000,78.656 155.000,80.083 ZM139.500,149.833 L144.667,149.833 L144.667,93.000 L139.500,93.000 L139.500,149.833 ZM20.667,113.666 L134.333,113.666 L134.333,93.000 L20.667,93.000 L20.667,113.666 ZM10.333,149.833 L15.500,149.833 L15.500,93.000 L10.333,93.000 L10.333,149.833 ZM31.343,25.833 L33.281,41.333 L44.219,41.333 L46.156,25.833 L31.343,25.833 ZM90.430,10.579 C97.421,9.159 104.239,13.675 105.658,20.666 L110.900,20.666 C109.621,11.758 101.986,5.145 92.986,5.152 C82.999,5.160 74.909,13.262 74.917,23.250 L74.917,41.333 L80.083,41.333 L80.083,23.250 C80.077,17.102 84.405,11.802 90.430,10.579 ZM149.833,51.666 L149.833,46.500 L5.167,46.500 L5.167,51.666 C5.181,64.501 15.582,74.902 28.417,74.916 L126.583,74.916 C139.418,74.902 149.819,64.501 149.833,51.666 ZM149.833,82.666 L5.167,82.666 L5.167,87.833 L149.833,87.833 L149.833,82.666 ZM69.750,98.166 L85.250,98.166 L85.250,103.333 L69.750,103.333 L69.750,98.166 Z"/>
</svg>