<svg 
 xmlns="http://www.w3.org/2000/svg"
 xmlns:xlink="http://www.w3.org/1999/xlink"
 width="130px" height="130px">
<defs>
<linearGradient id="PSgrad_0" x1="0%" x2="50%" y1="0%" y2="86.603%">
  <stop offset="0%" stop-color="rgb(15,135,120)" stop-opacity="1" />
  <stop offset="100%" stop-color="rgb(16,103,91)" stop-opacity="1" />
</linearGradient>

</defs>
<path fill-rule="evenodd"  fill="rgb(0, 0, 0)"
 d="M127.706,56.588 C127.704,56.588 127.702,56.588 127.700,56.588 L126.935,56.588 L126.935,107.059 L127.700,107.059 C128.967,107.059 129.994,108.085 129.994,109.353 L129.994,127.706 C129.994,128.973 128.967,130.000 127.700,130.000 L90.996,130.000 C89.729,130.000 88.702,128.973 88.702,127.706 L88.702,109.353 C88.702,108.086 89.729,107.059 90.996,107.059 L91.761,107.059 L91.761,56.588 L90.996,56.588 C89.729,56.588 88.702,55.561 88.702,54.294 C88.702,47.126 82.870,41.294 75.702,41.294 C74.435,41.294 73.408,40.267 73.408,39.000 L73.408,38.235 L22.940,38.235 L22.940,39.000 C22.940,40.267 21.913,41.294 20.646,41.294 L2.294,41.294 C1.027,41.294 -0.000,40.267 -0.000,39.000 L-0.000,2.294 C-0.000,1.027 1.027,-0.000 2.294,-0.000 L20.646,-0.000 C21.913,-0.000 22.940,1.027 22.940,2.294 L22.940,3.059 L73.408,3.059 L73.408,2.294 C73.408,1.027 74.435,-0.000 75.702,-0.000 C105.582,-0.000 129.902,24.261 129.994,54.122 C129.998,54.178 130.000,54.236 130.000,54.294 C130.000,55.561 128.973,56.588 127.706,56.588 ZM18.352,4.588 L4.588,4.588 L4.588,36.706 L18.352,36.706 L18.352,4.588 ZM73.408,7.647 L22.940,7.647 L22.940,33.647 L73.408,33.647 L73.408,7.647 ZM77.996,4.640 L77.996,36.855 C85.863,37.884 92.112,44.132 93.141,52.000 L125.354,52.000 C124.185,26.415 103.580,5.809 77.996,4.640 ZM96.348,56.588 L96.348,107.059 L122.347,107.059 L122.347,56.588 L96.348,56.588 ZM125.406,111.647 L93.290,111.647 L93.290,125.411 L125.406,125.411 L125.406,111.647 ZM29.822,52.000 L66.526,52.000 C67.793,52.000 68.820,53.027 68.820,54.294 L68.820,72.647 C68.820,73.914 67.793,74.941 66.526,74.941 L65.761,74.941 L65.761,107.059 L66.526,107.059 C67.793,107.059 68.820,108.085 68.820,109.353 L68.820,127.705 C68.820,128.973 67.793,130.000 66.526,130.000 L29.822,130.000 C28.555,130.000 27.528,128.973 27.528,127.705 L27.528,109.353 C27.528,108.085 28.555,107.059 29.822,107.059 L30.586,107.059 L30.586,74.941 L29.822,74.941 C28.555,74.941 27.528,73.914 27.528,72.647 L27.528,54.294 C27.528,53.027 28.555,52.000 29.822,52.000 ZM32.116,125.411 L64.232,125.411 L64.232,111.647 L32.116,111.647 L32.116,125.411 ZM61.173,107.059 L61.173,74.941 L35.174,74.941 L35.174,107.059 L61.173,107.059 ZM32.116,70.353 L64.232,70.353 L64.232,56.588 L32.116,56.588 L32.116,70.353 Z"/>
<path fill="url(#PSgrad_0)"
 d="M127.706,56.588 C127.704,56.588 127.702,56.588 127.700,56.588 L126.935,56.588 L126.935,107.059 L127.700,107.059 C128.967,107.059 129.994,108.085 129.994,109.353 L129.994,127.706 C129.994,128.973 128.967,130.000 127.700,130.000 L90.996,130.000 C89.729,130.000 88.702,128.973 88.702,127.706 L88.702,109.353 C88.702,108.086 89.729,107.059 90.996,107.059 L91.761,107.059 L91.761,56.588 L90.996,56.588 C89.729,56.588 88.702,55.561 88.702,54.294 C88.702,47.126 82.870,41.294 75.702,41.294 C74.435,41.294 73.408,40.267 73.408,39.000 L73.408,38.235 L22.940,38.235 L22.940,39.000 C22.940,40.267 21.913,41.294 20.646,41.294 L2.294,41.294 C1.027,41.294 -0.000,40.267 -0.000,39.000 L-0.000,2.294 C-0.000,1.027 1.027,-0.000 2.294,-0.000 L20.646,-0.000 C21.913,-0.000 22.940,1.027 22.940,2.294 L22.940,3.059 L73.408,3.059 L73.408,2.294 C73.408,1.027 74.435,-0.000 75.702,-0.000 C105.582,-0.000 129.902,24.261 129.994,54.122 C129.998,54.178 130.000,54.236 130.000,54.294 C130.000,55.561 128.973,56.588 127.706,56.588 ZM18.352,4.588 L4.588,4.588 L4.588,36.706 L18.352,36.706 L18.352,4.588 ZM73.408,7.647 L22.940,7.647 L22.940,33.647 L73.408,33.647 L73.408,7.647 ZM77.996,4.640 L77.996,36.855 C85.863,37.884 92.112,44.132 93.141,52.000 L125.354,52.000 C124.185,26.415 103.580,5.809 77.996,4.640 ZM96.348,56.588 L96.348,107.059 L122.347,107.059 L122.347,56.588 L96.348,56.588 ZM125.406,111.647 L93.290,111.647 L93.290,125.411 L125.406,125.411 L125.406,111.647 ZM29.822,52.000 L66.526,52.000 C67.793,52.000 68.820,53.027 68.820,54.294 L68.820,72.647 C68.820,73.914 67.793,74.941 66.526,74.941 L65.761,74.941 L65.761,107.059 L66.526,107.059 C67.793,107.059 68.820,108.085 68.820,109.353 L68.820,127.705 C68.820,128.973 67.793,130.000 66.526,130.000 L29.822,130.000 C28.555,130.000 27.528,128.973 27.528,127.705 L27.528,109.353 C27.528,108.085 28.555,107.059 29.822,107.059 L30.586,107.059 L30.586,74.941 L29.822,74.941 C28.555,74.941 27.528,73.914 27.528,72.647 L27.528,54.294 C27.528,53.027 28.555,52.000 29.822,52.000 ZM32.116,125.411 L64.232,125.411 L64.232,111.647 L32.116,111.647 L32.116,125.411 ZM61.173,107.059 L61.173,74.941 L35.174,74.941 L35.174,107.059 L61.173,107.059 ZM32.116,70.353 L64.232,70.353 L64.232,56.588 L32.116,56.588 L32.116,70.353 Z"/>
</svg>