<svg 
 xmlns="http://www.w3.org/2000/svg"
 xmlns:xlink="http://www.w3.org/1999/xlink"
 width="130px" height="130px">
<defs>
<linearGradient id="PSgrad_0" x1="0%" x2="50%" y1="0%" y2="86.603%">
  <stop offset="0%" stop-color="rgb(15,135,120)" stop-opacity="1" />
  <stop offset="100%" stop-color="rgb(16,103,91)" stop-opacity="1" />
</linearGradient>

</defs>
<path fill-rule="evenodd"  fill="rgb(255, 255, 255)"
 d="M129.999,30.960 C129.999,31.816 129.653,32.590 129.087,33.154 C128.526,33.714 127.753,34.061 126.898,34.061 C126.886,34.061 126.880,34.055 126.866,34.055 L123.815,34.055 L123.815,111.427 C123.815,121.666 115.486,129.993 105.243,129.993 C95.001,129.993 86.672,121.666 86.672,111.427 L86.672,34.055 L83.571,34.055 L83.571,111.427 C83.571,121.666 75.244,129.993 65.005,129.993 C54.763,129.993 46.434,121.666 46.434,111.427 L46.434,34.055 L43.332,34.055 L43.332,111.429 C43.332,121.668 35.004,129.995 24.761,129.995 C14.518,129.995 6.189,121.668 6.189,111.429 L6.189,34.059 L3.124,34.059 C3.112,34.059 3.106,34.065 3.094,34.065 C2.236,34.065 1.462,33.719 0.902,33.154 C0.339,32.594 -0.007,31.820 -0.007,30.964 C-0.007,30.949 -0.001,30.944 -0.001,30.931 L-0.001,19.132 L-0.001,12.688 L-0.001,9.286 C-0.001,4.165 4.164,-0.000 9.285,-0.000 L120.714,-0.000 C125.832,-0.000 129.999,4.165 129.999,9.286 L129.994,30.929 C129.994,30.942 129.999,30.948 129.999,30.960 ZM92.862,111.427 C92.862,118.248 98.416,123.802 105.243,123.802 C112.071,123.802 117.625,118.248 117.625,111.427 L117.625,46.425 L92.862,46.425 L92.862,111.427 ZM92.862,40.234 L117.625,40.234 L117.625,34.055 L111.496,34.055 C111.485,34.055 111.478,34.061 111.464,34.061 C111.452,34.061 111.446,34.055 111.434,34.055 L92.862,34.055 L92.862,40.234 ZM108.369,27.864 L108.369,24.757 L102.164,24.757 L102.144,27.864 L108.369,27.864 ZM52.624,111.427 C52.624,118.248 58.178,123.802 65.005,123.802 C71.827,123.802 77.380,118.248 77.380,111.427 L77.380,46.425 L52.624,46.425 L52.624,111.427 ZM52.624,40.234 L77.380,40.234 L77.380,34.055 L71.240,34.055 C71.226,34.055 71.220,34.061 71.208,34.061 C71.196,34.061 71.190,34.055 71.178,34.055 L52.624,34.055 L52.624,40.234 ZM68.112,27.864 L68.112,24.757 L61.906,24.757 L61.888,27.864 L68.112,27.864 ZM12.380,111.427 C12.380,118.248 17.934,123.802 24.761,123.802 C31.588,123.802 37.142,118.248 37.142,111.427 L37.142,46.425 L12.380,46.425 L12.380,111.427 ZM12.380,40.234 L37.142,40.234 L37.142,34.055 L30.982,34.055 C30.969,34.055 30.964,34.061 30.951,34.061 C30.939,34.061 30.933,34.055 30.921,34.055 L12.380,34.055 L12.380,40.234 ZM27.856,27.864 L27.856,24.757 L21.650,24.757 L21.631,27.864 L27.856,27.864 ZM120.714,6.191 L9.285,6.191 C7.576,6.191 6.189,7.577 6.189,9.286 L6.189,27.864 L15.441,27.864 L15.475,21.643 C15.475,21.430 15.556,21.242 15.598,21.043 C15.642,20.844 15.644,20.634 15.723,20.448 C15.775,20.317 15.886,20.219 15.959,20.097 C16.092,19.882 16.204,19.648 16.388,19.467 C16.462,19.392 16.571,19.356 16.652,19.290 C16.874,19.108 17.097,18.921 17.369,18.808 C17.738,18.653 18.143,18.566 18.570,18.566 C18.576,18.566 18.581,18.566 18.587,18.566 L30.951,18.566 C32.662,18.566 34.047,19.948 34.047,21.662 L34.047,27.864 L55.697,27.864 L55.731,21.643 C55.731,21.430 55.812,21.242 55.857,21.043 C55.899,20.844 55.903,20.634 55.980,20.448 C56.032,20.317 56.142,20.219 56.215,20.097 C56.348,19.882 56.463,19.648 56.644,19.467 C56.719,19.392 56.828,19.356 56.909,19.290 C57.130,19.108 57.354,18.921 57.626,18.808 C57.994,18.653 58.399,18.566 58.827,18.566 C58.833,18.566 58.837,18.566 58.843,18.566 L71.208,18.566 C72.921,18.566 74.303,19.948 74.303,21.662 L74.303,27.864 L95.954,27.864 L95.988,21.643 C95.988,21.430 96.069,21.242 96.113,21.043 C96.155,20.844 96.160,20.634 96.236,20.448 C96.288,20.317 96.401,20.219 96.472,20.097 C96.605,19.882 96.720,19.648 96.901,19.467 C96.976,19.392 97.084,19.356 97.165,19.290 C97.388,19.108 97.610,18.921 97.882,18.808 C98.251,18.653 98.656,18.566 99.083,18.566 C99.089,18.566 99.093,18.566 99.099,18.566 L111.464,18.566 C113.177,18.566 114.560,19.948 114.560,21.662 L114.560,27.864 L123.803,27.864 L123.809,9.286 C123.809,7.577 122.423,6.191 120.714,6.191 ZM30.951,77.390 L18.570,77.390 C16.860,77.390 15.475,76.005 15.475,74.295 C15.475,72.584 16.860,71.199 18.570,71.199 L30.951,71.199 C32.662,71.199 34.047,72.584 34.047,74.295 C34.047,76.005 32.662,77.390 30.951,77.390 ZM21.666,80.491 L27.856,80.491 C29.567,80.491 30.951,81.876 30.951,83.587 C30.951,85.298 29.567,86.682 27.856,86.682 L21.666,86.682 C19.955,86.682 18.570,85.298 18.570,83.587 C18.570,81.876 19.955,80.491 21.666,80.491 ZM71.196,77.390 L58.815,77.390 C57.104,77.390 55.720,76.005 55.720,74.295 C55.720,72.584 57.104,71.199 58.815,71.199 L71.196,71.199 C72.906,71.199 74.291,72.584 74.291,74.295 C74.291,76.005 72.906,77.390 71.196,77.390 ZM61.910,80.491 L68.101,80.491 C69.811,80.491 71.196,81.876 71.196,83.587 C71.196,85.298 69.811,86.682 68.101,86.682 L61.910,86.682 C60.199,86.682 58.815,85.298 58.815,83.587 C58.815,81.876 60.199,80.491 61.910,80.491 ZM111.434,77.390 L99.053,77.390 C97.342,77.390 95.958,76.005 95.958,74.295 C95.958,72.584 97.342,71.199 99.053,71.199 L111.434,71.199 C113.145,71.199 114.529,72.584 114.529,74.295 C114.529,76.005 113.145,77.390 111.434,77.390 ZM102.148,80.491 L108.339,80.491 C110.049,80.491 111.434,81.876 111.434,83.587 C111.434,85.298 110.049,86.682 108.339,86.682 L102.148,86.682 C100.438,86.682 99.053,85.298 99.053,83.587 C99.053,81.876 100.438,80.491 102.148,80.491 Z"/>
<path fill="url(#PSgrad_0)"
 d="M129.999,30.960 C129.999,31.816 129.653,32.590 129.087,33.154 C128.526,33.714 127.753,34.061 126.898,34.061 C126.886,34.061 126.880,34.055 126.866,34.055 L123.815,34.055 L123.815,111.427 C123.815,121.666 115.486,129.993 105.243,129.993 C95.001,129.993 86.672,121.666 86.672,111.427 L86.672,34.055 L83.571,34.055 L83.571,111.427 C83.571,121.666 75.244,129.993 65.005,129.993 C54.763,129.993 46.434,121.666 46.434,111.427 L46.434,34.055 L43.332,34.055 L43.332,111.429 C43.332,121.668 35.004,129.995 24.761,129.995 C14.518,129.995 6.189,121.668 6.189,111.429 L6.189,34.059 L3.124,34.059 C3.112,34.059 3.106,34.065 3.094,34.065 C2.236,34.065 1.462,33.719 0.902,33.154 C0.339,32.594 -0.007,31.820 -0.007,30.964 C-0.007,30.949 -0.001,30.944 -0.001,30.931 L-0.001,19.132 L-0.001,12.688 L-0.001,9.286 C-0.001,4.165 4.164,-0.000 9.285,-0.000 L120.714,-0.000 C125.832,-0.000 129.999,4.165 129.999,9.286 L129.994,30.929 C129.994,30.942 129.999,30.948 129.999,30.960 ZM92.862,111.427 C92.862,118.248 98.416,123.802 105.243,123.802 C112.071,123.802 117.625,118.248 117.625,111.427 L117.625,46.425 L92.862,46.425 L92.862,111.427 ZM92.862,40.234 L117.625,40.234 L117.625,34.055 L111.496,34.055 C111.485,34.055 111.478,34.061 111.464,34.061 C111.452,34.061 111.446,34.055 111.434,34.055 L92.862,34.055 L92.862,40.234 ZM108.369,27.864 L108.369,24.757 L102.164,24.757 L102.144,27.864 L108.369,27.864 ZM52.624,111.427 C52.624,118.248 58.178,123.802 65.005,123.802 C71.827,123.802 77.380,118.248 77.380,111.427 L77.380,46.425 L52.624,46.425 L52.624,111.427 ZM52.624,40.234 L77.380,40.234 L77.380,34.055 L71.240,34.055 C71.226,34.055 71.220,34.061 71.208,34.061 C71.196,34.061 71.190,34.055 71.178,34.055 L52.624,34.055 L52.624,40.234 ZM68.112,27.864 L68.112,24.757 L61.906,24.757 L61.888,27.864 L68.112,27.864 ZM12.380,111.427 C12.380,118.248 17.934,123.802 24.761,123.802 C31.588,123.802 37.142,118.248 37.142,111.427 L37.142,46.425 L12.380,46.425 L12.380,111.427 ZM12.380,40.234 L37.142,40.234 L37.142,34.055 L30.982,34.055 C30.969,34.055 30.964,34.061 30.951,34.061 C30.939,34.061 30.933,34.055 30.921,34.055 L12.380,34.055 L12.380,40.234 ZM27.856,27.864 L27.856,24.757 L21.650,24.757 L21.631,27.864 L27.856,27.864 ZM120.714,6.191 L9.285,6.191 C7.576,6.191 6.189,7.577 6.189,9.286 L6.189,27.864 L15.441,27.864 L15.475,21.643 C15.475,21.430 15.556,21.242 15.598,21.043 C15.642,20.844 15.644,20.634 15.723,20.448 C15.775,20.317 15.886,20.219 15.959,20.097 C16.092,19.882 16.204,19.648 16.388,19.467 C16.462,19.392 16.571,19.356 16.652,19.290 C16.874,19.108 17.097,18.921 17.369,18.808 C17.738,18.653 18.143,18.566 18.570,18.566 C18.576,18.566 18.581,18.566 18.587,18.566 L30.951,18.566 C32.662,18.566 34.047,19.948 34.047,21.662 L34.047,27.864 L55.697,27.864 L55.731,21.643 C55.731,21.430 55.812,21.242 55.857,21.043 C55.899,20.844 55.903,20.634 55.980,20.448 C56.032,20.317 56.142,20.219 56.215,20.097 C56.348,19.882 56.463,19.648 56.644,19.467 C56.719,19.392 56.828,19.356 56.909,19.290 C57.130,19.108 57.354,18.921 57.626,18.808 C57.994,18.653 58.399,18.566 58.827,18.566 C58.833,18.566 58.837,18.566 58.843,18.566 L71.208,18.566 C72.921,18.566 74.303,19.948 74.303,21.662 L74.303,27.864 L95.954,27.864 L95.988,21.643 C95.988,21.430 96.069,21.242 96.113,21.043 C96.155,20.844 96.160,20.634 96.236,20.448 C96.288,20.317 96.401,20.219 96.472,20.097 C96.605,19.882 96.720,19.648 96.901,19.467 C96.976,19.392 97.084,19.356 97.165,19.290 C97.388,19.108 97.610,18.921 97.882,18.808 C98.251,18.653 98.656,18.566 99.083,18.566 C99.089,18.566 99.093,18.566 99.099,18.566 L111.464,18.566 C113.177,18.566 114.560,19.948 114.560,21.662 L114.560,27.864 L123.803,27.864 L123.809,9.286 C123.809,7.577 122.423,6.191 120.714,6.191 ZM30.951,77.390 L18.570,77.390 C16.860,77.390 15.475,76.005 15.475,74.295 C15.475,72.584 16.860,71.199 18.570,71.199 L30.951,71.199 C32.662,71.199 34.047,72.584 34.047,74.295 C34.047,76.005 32.662,77.390 30.951,77.390 ZM21.666,80.491 L27.856,80.491 C29.567,80.491 30.951,81.876 30.951,83.587 C30.951,85.298 29.567,86.682 27.856,86.682 L21.666,86.682 C19.955,86.682 18.570,85.298 18.570,83.587 C18.570,81.876 19.955,80.491 21.666,80.491 ZM71.196,77.390 L58.815,77.390 C57.104,77.390 55.720,76.005 55.720,74.295 C55.720,72.584 57.104,71.199 58.815,71.199 L71.196,71.199 C72.906,71.199 74.291,72.584 74.291,74.295 C74.291,76.005 72.906,77.390 71.196,77.390 ZM61.910,80.491 L68.101,80.491 C69.811,80.491 71.196,81.876 71.196,83.587 C71.196,85.298 69.811,86.682 68.101,86.682 L61.910,86.682 C60.199,86.682 58.815,85.298 58.815,83.587 C58.815,81.876 60.199,80.491 61.910,80.491 ZM111.434,77.390 L99.053,77.390 C97.342,77.390 95.958,76.005 95.958,74.295 C95.958,72.584 97.342,71.199 99.053,71.199 L111.434,71.199 C113.145,71.199 114.529,72.584 114.529,74.295 C114.529,76.005 113.145,77.390 111.434,77.390 ZM102.148,80.491 L108.339,80.491 C110.049,80.491 111.434,81.876 111.434,83.587 C111.434,85.298 110.049,86.682 108.339,86.682 L102.148,86.682 C100.438,86.682 99.053,85.298 99.053,83.587 C99.053,81.876 100.438,80.491 102.148,80.491 Z"/>
</svg>