<svg 
 xmlns="http://www.w3.org/2000/svg"
 xmlns:xlink="http://www.w3.org/1999/xlink"
 width="155px" height="155px">
<defs>
<linearGradient id="PSgrad_0" x1="0%" x2="50%" y1="0%" y2="86.603%">
  <stop offset="0%" stop-color="rgb(15,135,120)" stop-opacity="1" />
  <stop offset="100%" stop-color="rgb(16,103,91)" stop-opacity="1" />
</linearGradient>

</defs>
<path fill-rule="evenodd"  fill="rgb(0, 0, 0)"
 d="M152.416,155.000 L2.583,155.000 C1.156,155.000 -0.000,153.843 -0.000,152.416 L-0.000,142.083 C-0.000,140.657 1.156,139.500 2.583,139.500 L5.167,139.500 L5.167,131.750 C5.167,130.323 6.323,129.166 7.750,129.166 L10.333,129.166 L10.333,2.583 C10.333,1.156 11.490,-0.000 12.917,-0.000 L142.084,-0.000 C143.511,-0.000 144.667,1.156 144.667,2.583 L144.667,129.167 L147.250,129.167 C148.677,129.167 149.834,130.323 149.834,131.750 L149.834,139.500 L152.417,139.500 C153.844,139.500 155.000,140.657 155.000,142.083 L155.000,152.416 C155.000,153.843 153.843,155.000 152.416,155.000 ZM33.583,69.750 L28.417,69.750 L28.417,77.500 L33.583,77.500 L33.583,69.750 ZM33.583,82.666 L25.833,82.666 C24.406,82.666 23.250,81.510 23.250,80.083 L23.250,67.166 C23.250,65.740 24.406,64.583 25.833,64.583 L33.583,64.583 L33.583,5.166 L15.500,5.166 L15.500,129.167 L33.583,129.167 L33.583,82.666 ZM116.250,5.166 L80.083,5.166 L80.083,13.149 C88.841,14.596 95.583,23.250 95.583,33.583 C95.583,35.010 94.427,36.166 93.000,36.166 L62.000,36.166 C60.573,36.166 59.417,35.010 59.417,33.583 C59.417,23.250 66.159,14.596 74.917,13.149 L74.917,5.166 L38.750,5.166 L38.750,129.167 L116.250,129.167 L116.250,5.166 ZM77.500,18.083 C71.119,18.083 65.797,23.689 64.764,31.000 L90.236,31.000 C89.202,23.689 83.881,18.083 77.500,18.083 ZM139.500,5.166 L121.417,5.166 L121.417,64.583 L129.167,64.583 C130.593,64.583 131.750,65.740 131.750,67.166 L131.750,80.083 C131.750,81.510 130.593,82.666 129.167,82.666 L121.417,82.666 L121.417,129.167 L139.500,129.167 L139.500,5.166 ZM121.417,69.750 L121.417,77.500 L126.583,77.500 L126.583,69.750 L121.417,69.750 ZM144.666,134.333 L10.333,134.333 L10.333,139.500 L144.666,139.500 L144.666,134.333 ZM149.834,144.666 L5.167,144.666 L5.167,149.833 L149.833,149.833 L149.834,149.833 L149.834,144.666 ZM62.000,41.333 C63.427,41.333 64.583,42.490 64.583,43.916 L64.583,46.499 C64.583,47.926 63.427,49.083 62.000,49.083 C60.573,49.083 59.417,47.926 59.417,46.499 L59.417,43.916 C59.417,42.489 60.573,41.333 62.000,41.333 ZM62.000,54.250 C63.427,54.250 64.583,55.406 64.583,56.833 L64.583,59.416 C64.583,60.843 63.427,62.000 62.000,62.000 C60.573,62.000 59.417,60.843 59.417,59.416 L59.417,56.833 C59.417,55.406 60.573,54.250 62.000,54.250 ZM62.000,67.166 C63.427,67.166 64.583,68.323 64.583,69.750 L64.583,72.333 C64.583,73.760 63.427,74.916 62.000,74.916 C60.573,74.916 59.417,73.760 59.417,72.333 L59.417,69.750 C59.417,68.323 60.573,67.166 62.000,67.166 ZM62.000,80.083 C63.427,80.083 64.583,81.240 64.583,82.666 L64.583,85.249 C64.583,86.676 63.427,87.833 62.000,87.833 C60.573,87.833 59.417,86.676 59.417,85.249 L59.417,82.666 C59.417,81.240 60.573,80.083 62.000,80.083 ZM72.333,41.333 C73.760,41.333 74.917,42.490 74.916,43.916 L74.916,46.499 C74.916,47.926 73.760,49.083 72.333,49.083 C70.906,49.083 69.750,47.926 69.750,46.499 L69.750,43.916 C69.750,42.489 70.906,41.333 72.333,41.333 ZM72.333,54.250 C73.760,54.250 74.917,55.406 74.916,56.833 L74.916,59.416 C74.916,60.843 73.760,62.000 72.333,62.000 C70.906,62.000 69.750,60.843 69.750,59.416 L69.750,56.833 C69.750,55.406 70.906,54.250 72.333,54.250 ZM72.333,67.166 C73.760,67.166 74.917,68.323 74.916,69.750 L74.916,72.333 C74.916,73.760 73.760,74.916 72.333,74.916 C70.906,74.916 69.750,73.760 69.750,72.333 L69.750,69.750 C69.750,68.323 70.906,67.166 72.333,67.166 ZM72.333,80.083 C73.760,80.083 74.917,81.240 74.916,82.666 L74.916,85.249 C74.916,86.676 73.760,87.833 72.333,87.833 C70.906,87.833 69.750,86.676 69.750,85.249 L69.750,82.666 C69.750,81.240 70.906,80.083 72.333,80.083 ZM82.667,41.333 C84.093,41.333 85.250,42.490 85.250,43.916 L85.250,46.499 C85.250,47.926 84.093,49.083 82.667,49.083 C81.240,49.083 80.083,47.926 80.083,46.499 L80.083,43.916 C80.083,42.489 81.240,41.333 82.667,41.333 ZM82.667,54.250 C84.093,54.250 85.250,55.406 85.250,56.833 L85.250,59.416 C85.250,60.843 84.093,62.000 82.667,62.000 C81.240,62.000 80.083,60.843 80.083,59.416 L80.083,56.833 C80.083,55.406 81.240,54.250 82.667,54.250 ZM82.667,67.166 C84.093,67.166 85.250,68.323 85.250,69.750 L85.250,72.333 C85.250,73.760 84.093,74.916 82.667,74.916 C81.240,74.916 80.083,73.760 80.083,72.333 L80.083,69.750 C80.083,68.323 81.240,67.166 82.667,67.166 ZM82.667,80.083 C84.093,80.083 85.250,81.240 85.250,82.666 L85.250,85.249 C85.250,86.676 84.093,87.833 82.667,87.833 C81.240,87.833 80.083,86.676 80.083,85.249 L80.083,82.666 C80.083,81.240 81.240,80.083 82.667,80.083 ZM93.000,41.333 C94.427,41.333 95.583,42.490 95.583,43.916 L95.583,46.499 C95.583,47.926 94.427,49.083 93.000,49.083 C91.573,49.083 90.417,47.926 90.417,46.499 L90.417,43.916 C90.417,42.489 91.573,41.333 93.000,41.333 ZM93.000,54.250 C94.427,54.250 95.583,55.406 95.583,56.833 L95.583,59.416 C95.583,60.843 94.427,62.000 93.000,62.000 C91.573,62.000 90.417,60.843 90.417,59.416 L90.417,56.833 C90.417,55.406 91.573,54.250 93.000,54.250 ZM93.000,67.166 C94.427,67.166 95.583,68.323 95.583,69.750 L95.583,72.333 C95.583,73.760 94.427,74.916 93.000,74.916 C91.573,74.916 90.417,73.760 90.417,72.333 L90.417,69.750 C90.417,68.323 91.573,67.166 93.000,67.166 ZM93.000,80.083 C94.427,80.083 95.583,81.240 95.583,82.666 L95.583,85.249 C95.583,86.676 94.427,87.833 93.000,87.833 C91.573,87.833 90.417,86.676 90.417,85.249 L90.417,82.666 C90.417,81.240 91.573,80.083 93.000,80.083 Z"/>
<path fill="url(#PSgrad_0)"
 d="M152.416,155.000 L2.583,155.000 C1.156,155.000 -0.000,153.843 -0.000,152.416 L-0.000,142.083 C-0.000,140.657 1.156,139.500 2.583,139.500 L5.167,139.500 L5.167,131.750 C5.167,130.323 6.323,129.166 7.750,129.166 L10.333,129.166 L10.333,2.583 C10.333,1.156 11.490,-0.000 12.917,-0.000 L142.084,-0.000 C143.511,-0.000 144.667,1.156 144.667,2.583 L144.667,129.167 L147.250,129.167 C148.677,129.167 149.834,130.323 149.834,131.750 L149.834,139.500 L152.417,139.500 C153.844,139.500 155.000,140.657 155.000,142.083 L155.000,152.416 C155.000,153.843 153.843,155.000 152.416,155.000 ZM33.583,69.750 L28.417,69.750 L28.417,77.500 L33.583,77.500 L33.583,69.750 ZM33.583,82.666 L25.833,82.666 C24.406,82.666 23.250,81.510 23.250,80.083 L23.250,67.166 C23.250,65.740 24.406,64.583 25.833,64.583 L33.583,64.583 L33.583,5.166 L15.500,5.166 L15.500,129.167 L33.583,129.167 L33.583,82.666 ZM116.250,5.166 L80.083,5.166 L80.083,13.149 C88.841,14.596 95.583,23.250 95.583,33.583 C95.583,35.010 94.427,36.166 93.000,36.166 L62.000,36.166 C60.573,36.166 59.417,35.010 59.417,33.583 C59.417,23.250 66.159,14.596 74.917,13.149 L74.917,5.166 L38.750,5.166 L38.750,129.167 L116.250,129.167 L116.250,5.166 ZM77.500,18.083 C71.119,18.083 65.797,23.689 64.764,31.000 L90.236,31.000 C89.202,23.689 83.881,18.083 77.500,18.083 ZM139.500,5.166 L121.417,5.166 L121.417,64.583 L129.167,64.583 C130.593,64.583 131.750,65.740 131.750,67.166 L131.750,80.083 C131.750,81.510 130.593,82.666 129.167,82.666 L121.417,82.666 L121.417,129.167 L139.500,129.167 L139.500,5.166 ZM121.417,69.750 L121.417,77.500 L126.583,77.500 L126.583,69.750 L121.417,69.750 ZM144.666,134.333 L10.333,134.333 L10.333,139.500 L144.666,139.500 L144.666,134.333 ZM149.834,144.666 L5.167,144.666 L5.167,149.833 L149.833,149.833 L149.834,149.833 L149.834,144.666 ZM62.000,41.333 C63.427,41.333 64.583,42.490 64.583,43.916 L64.583,46.499 C64.583,47.926 63.427,49.083 62.000,49.083 C60.573,49.083 59.417,47.926 59.417,46.499 L59.417,43.916 C59.417,42.489 60.573,41.333 62.000,41.333 ZM62.000,54.250 C63.427,54.250 64.583,55.406 64.583,56.833 L64.583,59.416 C64.583,60.843 63.427,62.000 62.000,62.000 C60.573,62.000 59.417,60.843 59.417,59.416 L59.417,56.833 C59.417,55.406 60.573,54.250 62.000,54.250 ZM62.000,67.166 C63.427,67.166 64.583,68.323 64.583,69.750 L64.583,72.333 C64.583,73.760 63.427,74.916 62.000,74.916 C60.573,74.916 59.417,73.760 59.417,72.333 L59.417,69.750 C59.417,68.323 60.573,67.166 62.000,67.166 ZM62.000,80.083 C63.427,80.083 64.583,81.240 64.583,82.666 L64.583,85.249 C64.583,86.676 63.427,87.833 62.000,87.833 C60.573,87.833 59.417,86.676 59.417,85.249 L59.417,82.666 C59.417,81.240 60.573,80.083 62.000,80.083 ZM72.333,41.333 C73.760,41.333 74.917,42.490 74.916,43.916 L74.916,46.499 C74.916,47.926 73.760,49.083 72.333,49.083 C70.906,49.083 69.750,47.926 69.750,46.499 L69.750,43.916 C69.750,42.489 70.906,41.333 72.333,41.333 ZM72.333,54.250 C73.760,54.250 74.917,55.406 74.916,56.833 L74.916,59.416 C74.916,60.843 73.760,62.000 72.333,62.000 C70.906,62.000 69.750,60.843 69.750,59.416 L69.750,56.833 C69.750,55.406 70.906,54.250 72.333,54.250 ZM72.333,67.166 C73.760,67.166 74.917,68.323 74.916,69.750 L74.916,72.333 C74.916,73.760 73.760,74.916 72.333,74.916 C70.906,74.916 69.750,73.760 69.750,72.333 L69.750,69.750 C69.750,68.323 70.906,67.166 72.333,67.166 ZM72.333,80.083 C73.760,80.083 74.917,81.240 74.916,82.666 L74.916,85.249 C74.916,86.676 73.760,87.833 72.333,87.833 C70.906,87.833 69.750,86.676 69.750,85.249 L69.750,82.666 C69.750,81.240 70.906,80.083 72.333,80.083 ZM82.667,41.333 C84.093,41.333 85.250,42.490 85.250,43.916 L85.250,46.499 C85.250,47.926 84.093,49.083 82.667,49.083 C81.240,49.083 80.083,47.926 80.083,46.499 L80.083,43.916 C80.083,42.489 81.240,41.333 82.667,41.333 ZM82.667,54.250 C84.093,54.250 85.250,55.406 85.250,56.833 L85.250,59.416 C85.250,60.843 84.093,62.000 82.667,62.000 C81.240,62.000 80.083,60.843 80.083,59.416 L80.083,56.833 C80.083,55.406 81.240,54.250 82.667,54.250 ZM82.667,67.166 C84.093,67.166 85.250,68.323 85.250,69.750 L85.250,72.333 C85.250,73.760 84.093,74.916 82.667,74.916 C81.240,74.916 80.083,73.760 80.083,72.333 L80.083,69.750 C80.083,68.323 81.240,67.166 82.667,67.166 ZM82.667,80.083 C84.093,80.083 85.250,81.240 85.250,82.666 L85.250,85.249 C85.250,86.676 84.093,87.833 82.667,87.833 C81.240,87.833 80.083,86.676 80.083,85.249 L80.083,82.666 C80.083,81.240 81.240,80.083 82.667,80.083 ZM93.000,41.333 C94.427,41.333 95.583,42.490 95.583,43.916 L95.583,46.499 C95.583,47.926 94.427,49.083 93.000,49.083 C91.573,49.083 90.417,47.926 90.417,46.499 L90.417,43.916 C90.417,42.489 91.573,41.333 93.000,41.333 ZM93.000,54.250 C94.427,54.250 95.583,55.406 95.583,56.833 L95.583,59.416 C95.583,60.843 94.427,62.000 93.000,62.000 C91.573,62.000 90.417,60.843 90.417,59.416 L90.417,56.833 C90.417,55.406 91.573,54.250 93.000,54.250 ZM93.000,67.166 C94.427,67.166 95.583,68.323 95.583,69.750 L95.583,72.333 C95.583,73.760 94.427,74.916 93.000,74.916 C91.573,74.916 90.417,73.760 90.417,72.333 L90.417,69.750 C90.417,68.323 91.573,67.166 93.000,67.166 ZM93.000,80.083 C94.427,80.083 95.583,81.240 95.583,82.666 L95.583,85.249 C95.583,86.676 94.427,87.833 93.000,87.833 C91.573,87.833 90.417,86.676 90.417,85.249 L90.417,82.666 C90.417,81.240 91.573,80.083 93.000,80.083 Z"/>
</svg>