<svg 
 xmlns="http://www.w3.org/2000/svg"
 xmlns:xlink="http://www.w3.org/1999/xlink"
 width="155px" height="155px">
<defs>
<linearGradient id="PSgrad_0" x1="0%" x2="50%" y1="0%" y2="86.603%">
  <stop offset="0%" stop-color="rgb(15,135,120)" stop-opacity="1" />
  <stop offset="100%" stop-color="rgb(16,103,91)" stop-opacity="1" />
</linearGradient>

</defs>
<path fill-rule="evenodd"  fill="rgb(0, 0, 0)"
 d="M138.333,41.602 L138.333,152.500 C138.333,153.880 137.213,155.000 135.833,155.000 L19.167,155.000 C17.785,155.000 16.667,153.880 16.667,152.500 L16.667,41.602 C6.202,35.501 -0.000,27.732 -0.000,19.167 C-0.000,17.785 1.118,16.666 2.500,16.666 L58.333,16.666 L58.333,10.833 C58.333,9.451 59.452,8.333 60.833,8.333 C62.215,8.333 63.333,9.451 63.333,10.833 L63.333,16.666 L66.667,16.666 L66.667,2.500 C66.667,1.118 67.785,-0.000 69.167,-0.000 L85.833,-0.000 C87.213,-0.000 88.333,1.118 88.333,2.500 L88.333,16.666 L91.667,16.666 L91.667,10.833 C91.667,9.451 92.787,8.333 94.167,8.333 C95.547,8.333 96.667,9.451 96.667,10.833 L96.667,16.666 L152.500,16.666 C153.880,16.666 155.000,17.785 155.000,19.167 C155.000,27.732 148.798,35.501 138.333,41.602 ZM21.667,150.000 L133.333,150.000 L133.333,146.666 L21.667,146.666 L21.667,150.000 ZM21.667,141.667 L133.333,141.667 L133.333,113.493 L21.667,113.175 L21.667,141.667 ZM133.333,108.493 L133.333,44.237 C119.867,50.653 101.125,54.674 80.000,54.971 L80.000,108.341 L133.333,108.493 ZM21.667,108.175 L75.000,108.326 L75.000,54.971 C53.875,54.674 35.133,50.653 21.667,44.237 L21.667,108.175 ZM83.333,5.000 L71.667,5.000 L71.667,16.666 L83.333,16.666 L83.333,5.000 ZM5.248,21.667 C8.355,37.263 40.177,50.000 77.500,50.000 C114.823,50.000 146.645,37.263 149.751,21.667 L5.248,21.667 ZM35.836,38.333 C35.721,38.333 35.606,38.327 35.490,38.310 C22.560,36.513 17.335,29.243 17.120,28.935 C16.328,27.803 16.603,26.245 17.735,25.453 C18.865,24.663 20.411,24.935 21.207,26.053 C21.401,26.321 25.568,31.885 36.178,33.358 C37.545,33.548 38.500,34.812 38.310,36.178 C38.135,37.428 37.065,38.333 35.836,38.333 ZM69.167,88.333 C67.785,88.333 66.667,87.213 66.667,85.833 L66.667,77.500 C66.667,76.118 67.785,75.000 69.167,75.000 C70.548,75.000 71.667,76.118 71.667,77.500 L71.667,85.833 C71.667,87.213 70.548,88.333 69.167,88.333 ZM85.833,75.000 C87.213,75.000 88.333,76.118 88.333,77.500 L88.333,85.833 C88.333,87.213 87.213,88.333 85.833,88.333 C84.453,88.333 83.333,87.213 83.333,85.833 L83.333,77.500 C83.333,76.118 84.453,75.000 85.833,75.000 ZM77.500,130.166 C76.118,130.166 75.000,129.046 75.000,127.666 C75.000,126.286 76.118,125.083 77.500,125.083 C78.882,125.083 80.000,126.120 80.000,127.500 L80.000,127.666 C80.000,129.046 78.882,130.166 77.500,130.166 Z"/>
<path fill="url(#PSgrad_0)"
 d="M138.333,41.602 L138.333,152.500 C138.333,153.880 137.213,155.000 135.833,155.000 L19.167,155.000 C17.785,155.000 16.667,153.880 16.667,152.500 L16.667,41.602 C6.202,35.501 -0.000,27.732 -0.000,19.167 C-0.000,17.785 1.118,16.666 2.500,16.666 L58.333,16.666 L58.333,10.833 C58.333,9.451 59.452,8.333 60.833,8.333 C62.215,8.333 63.333,9.451 63.333,10.833 L63.333,16.666 L66.667,16.666 L66.667,2.500 C66.667,1.118 67.785,-0.000 69.167,-0.000 L85.833,-0.000 C87.213,-0.000 88.333,1.118 88.333,2.500 L88.333,16.666 L91.667,16.666 L91.667,10.833 C91.667,9.451 92.787,8.333 94.167,8.333 C95.547,8.333 96.667,9.451 96.667,10.833 L96.667,16.666 L152.500,16.666 C153.880,16.666 155.000,17.785 155.000,19.167 C155.000,27.732 148.798,35.501 138.333,41.602 ZM21.667,150.000 L133.333,150.000 L133.333,146.666 L21.667,146.666 L21.667,150.000 ZM21.667,141.667 L133.333,141.667 L133.333,113.493 L21.667,113.175 L21.667,141.667 ZM133.333,108.493 L133.333,44.237 C119.867,50.653 101.125,54.674 80.000,54.971 L80.000,108.341 L133.333,108.493 ZM21.667,108.175 L75.000,108.326 L75.000,54.971 C53.875,54.674 35.133,50.653 21.667,44.237 L21.667,108.175 ZM83.333,5.000 L71.667,5.000 L71.667,16.666 L83.333,16.666 L83.333,5.000 ZM5.248,21.667 C8.355,37.263 40.177,50.000 77.500,50.000 C114.823,50.000 146.645,37.263 149.751,21.667 L5.248,21.667 ZM35.836,38.333 C35.721,38.333 35.606,38.327 35.490,38.310 C22.560,36.513 17.335,29.243 17.120,28.935 C16.328,27.803 16.603,26.245 17.735,25.453 C18.865,24.663 20.411,24.935 21.207,26.053 C21.401,26.321 25.568,31.885 36.178,33.358 C37.545,33.548 38.500,34.812 38.310,36.178 C38.135,37.428 37.065,38.333 35.836,38.333 ZM69.167,88.333 C67.785,88.333 66.667,87.213 66.667,85.833 L66.667,77.500 C66.667,76.118 67.785,75.000 69.167,75.000 C70.548,75.000 71.667,76.118 71.667,77.500 L71.667,85.833 C71.667,87.213 70.548,88.333 69.167,88.333 ZM85.833,75.000 C87.213,75.000 88.333,76.118 88.333,77.500 L88.333,85.833 C88.333,87.213 87.213,88.333 85.833,88.333 C84.453,88.333 83.333,87.213 83.333,85.833 L83.333,77.500 C83.333,76.118 84.453,75.000 85.833,75.000 ZM77.500,130.166 C76.118,130.166 75.000,129.046 75.000,127.666 C75.000,126.286 76.118,125.083 77.500,125.083 C78.882,125.083 80.000,126.120 80.000,127.500 L80.000,127.666 C80.000,129.046 78.882,130.166 77.500,130.166 Z"/>
</svg>