<svg width="64" height="64" viewBox="0 0 64 64" fill="none" xmlns="http://www.w3.org/2000/svg">
<path fill-rule="evenodd" clip-rule="evenodd" d="M11.0139 29.6339C10.9839 28.4257 12.0262 27.5008 13.1963 27.6131C24.3576 28.6838 45.2707 29.8554 51.5294 29.9878C52.599 30.0104 53.5791 30.9152 53.4 32.1369C53.1218 34.0353 52.253 37.2595 50.9268 40.0308C50.2639 41.4162 49.4605 42.7441 48.5173 43.7405C47.5805 44.7302 46.3997 45.5 45 45.5H16.0546L15.7567 45.169C14.1403 43.3729 11.239 38.7057 11.0139 29.6339ZM13.0138 29.6048C13.2171 37.6401 15.6118 41.8267 16.9618 43.5H45C45.6241 43.5 46.3154 43.1573 47.0649 42.3656C47.808 41.5806 48.5051 40.4582 49.1228 39.1675C50.325 36.6552 51.1271 33.7172 51.4 31.9854C44.9861 31.8432 24.1719 30.6748 13.0138 29.6048Z" fill="black"/>
<path fill-rule="evenodd" clip-rule="evenodd" d="M51.9684 34.499L12.4684 31.999L12.5316 31.001L52.0316 33.501L51.9684 34.499Z" fill="black"/>
<path fill-rule="evenodd" clip-rule="evenodd" d="M17 46V45.5H19V46H20V45.5H22V46C22 47.1046 21.1046 48 20 48H19C17.8954 48 17 47.1046 17 46Z" fill="black"/>
<path fill-rule="evenodd" clip-rule="evenodd" d="M40 46V45.5H42V46H43V45.5H45V46C45 47.1046 44.1046 48 43 48H42C40.8954 48 40 47.1046 40 46Z" fill="black"/>
<path fill-rule="evenodd" clip-rule="evenodd" d="M15.424 35.0058C15.6969 34.9638 15.9522 35.151 15.9942 35.424C16.2436 37.0453 16.4875 38.1882 16.7958 39.0027C17.0996 39.8056 17.4487 40.2438 17.8857 40.5109C18.3399 40.7884 18.9564 40.9239 19.888 40.9774C20.5553 41.0157 21.3362 41.0108 22.2825 41.0049C22.6608 41.0025 23.0655 41 23.5 41C23.7761 41 24 41.2239 24 41.5C24 41.7761 23.7761 42 23.5 42C23.0878 42 22.6958 42.0025 22.3238 42.0048C21.3611 42.0108 20.5319 42.016 19.8307 41.9757C18.8561 41.9198 18.0351 41.7741 17.3643 41.3641C16.6763 40.9437 16.2129 40.2881 15.8605 39.3566C15.5125 38.4368 15.2564 37.2047 15.0058 35.576C14.9638 35.3031 15.151 35.0478 15.424 35.0058Z" fill="black"/>
<path fill-rule="evenodd" clip-rule="evenodd" d="M18 7.5C17.4477 7.5 17 7.94772 17 8.5V28.5H15V8.5C15 6.84314 16.3431 5.5 18 5.5H21C22.6569 5.5 24 6.84315 24 8.5V10H22V8.5C22 7.94772 21.5523 7.5 21 7.5H18Z" fill="black"/>
<path fill-rule="evenodd" clip-rule="evenodd" d="M19 13V12C19 10.3431 20.3431 9 22 9H25.5C27.1569 9 28.5 10.3431 28.5 12V13H19ZM27.2324 11C27.4026 11.2942 27.5 11.6357 27.5 12H20C20 11.6357 20.0974 11.2942 20.2676 11C20.6134 10.4022 21.2597 10 22 10H25.5C26.2403 10 26.8866 10.4022 27.2324 11Z" fill="black"/>
<path fill-rule="evenodd" clip-rule="evenodd" d="M20.5 15.4583V14.5H21.5V15.4583H20.5ZM20.5 19.2917V17.375H21.5V19.2917H20.5ZM20.5 23.125V21.2083H21.5V23.125H20.5ZM20.5 26V25.0417H21.5V26H20.5Z" fill="black"/>
<path fill-rule="evenodd" clip-rule="evenodd" d="M26.5 15.4583V14.5H27.5V15.4583H26.5ZM26.5 19.2917V17.375H27.5V19.2917H26.5ZM26.5 23.125V21.2083H27.5V23.125H26.5ZM26.5 26V25.0417H27.5V26H26.5Z" fill="black"/>
<path fill-rule="evenodd" clip-rule="evenodd" d="M23.5 15.9583V15H24.5V15.9583H23.5ZM23.5 19.7917V17.875H24.5V19.7917H23.5ZM23.5 23.625V21.7083H24.5V23.625H23.5ZM23.5 26.5V25.5417H24.5V26.5H23.5Z" fill="black"/>
</svg>
