<svg 
 xmlns="http://www.w3.org/2000/svg"
 xmlns:xlink="http://www.w3.org/1999/xlink"
 width="21px" height="30px">
<path fill-rule="evenodd"  fill="rgb(87, 87, 87)"
 d="M19.519,15.950 L11.396,29.573 C11.240,29.835 10.958,29.997 10.653,30.000 C10.650,30.000 10.648,30.000 10.646,30.000 C10.343,30.000 10.062,29.843 9.902,29.584 L1.567,16.093 C0.542,14.429 -0.000,12.512 -0.000,10.547 C-0.000,4.731 4.710,-0.000 10.500,-0.000 C16.290,-0.000 21.000,4.731 21.000,10.547 C21.000,12.453 20.488,14.322 19.519,15.950 ZM10.500,1.746 C5.675,1.746 1.738,5.700 1.738,10.547 C1.738,12.184 2.201,13.782 3.055,15.167 L10.632,27.432 L18.017,15.048 C18.823,13.692 19.256,12.136 19.256,10.547 C19.256,5.700 15.325,1.746 10.500,1.746 ZM10.500,15.820 C7.567,15.820 5.250,13.436 5.250,10.547 C5.250,7.639 7.605,5.273 10.500,5.273 C13.395,5.273 15.750,7.639 15.750,10.547 C15.750,13.404 13.469,15.820 10.500,15.820 ZM10.500,7.019 C8.570,7.019 6.988,8.608 6.988,10.547 C6.988,12.490 8.560,14.074 10.500,14.074 C12.471,14.074 14.006,12.461 14.006,10.547 C14.006,8.608 12.430,7.019 10.500,7.019 Z"/>
</svg>