<?xml version="1.0" encoding="UTF-8"?>
<svg xmlns="http://www.w3.org/2000/svg" xmlns:xlink="http://www.w3.org/1999/xlink" width="510px" height="39px" viewBox="0 0 506 39" version="1.1">
<g id="surface1">
<path style=" stroke:none;fill-rule:nonzero;fill:rgb(0%,0%,0%);fill-opacity:1;" d="M 12.972656 17.167969 C 7.6875 26.140625 2.679688 34.621094 1.902344 35.820312 L 0.5625 38.152344 L 45.269531 38.152344 L 44.140625 36.386719 C 42.589844 34.054688 42.660156 33.699219 45.128906 32.640625 C 46.960938 31.792969 47.101562 31.511719 46.46875 29.816406 C 46.042969 28.753906 45.902344 26.917969 46.1875 25.71875 C 46.75 22.679688 45.972656 21.195312 44 21.195312 C 41.25 21.195312 36.457031 19.003906 37.300781 18.15625 C 38.570312 16.886719 38.148438 14.554688 36.597656 13.566406 C 35.539062 12.859375 35.257812 12.152344 35.539062 10.878906 C 35.960938 9.253906 35.042969 8.476562 34.199219 9.890625 C 33.632812 10.808594 29.542969 9.960938 27.992188 8.550781 C 26.867188 7.628906 26.722656 7.628906 26.9375 8.476562 C 27.078125 9.253906 26.441406 9.609375 24.820312 9.75 C 23.058594 9.960938 22.5625 10.246094 22.847656 11.09375 C 23.058594 11.65625 23.269531 12.363281 23.269531 12.648438 C 23.269531 13 24.46875 13.210938 25.878906 13.140625 C 28.207031 13.070312 28.558594 13.28125 29.121094 15.191406 C 29.472656 16.320312 30.039062 18.300781 30.390625 19.570312 C 30.957031 21.40625 30.8125 22.398438 29.617188 24.800781 C 26.722656 30.449219 28.839844 32.21875 37.371094 31.371094 C 40.121094 31.085938 42.660156 31.226562 43.367188 31.582031 C 44.28125 32.074219 42.730469 32.429688 37.722656 32.78125 C 31.449219 33.277344 30.601562 33.207031 28.980469 31.933594 C 27.78125 31.015625 27.148438 29.886719 27.148438 28.683594 L 27.21875 26.777344 L 26.019531 28.402344 C 24.960938 29.746094 24.609375 29.886719 22.988281 29.109375 C 22 28.683594 20.519531 27.273438 19.742188 26 C 18.96875 24.726562 18.332031 24.09375 18.332031 24.65625 C 18.332031 25.222656 19.957031 27.273438 21.929688 29.179688 C 25.808594 32.925781 26.160156 34.972656 22.777344 34.195312 C 17.628906 32.925781 15.652344 31.085938 14.382812 26.28125 C 13.609375 23.316406 13.46875 23.175781 13.46875 25.222656 C 13.328125 30.097656 16.21875 34.195312 20.589844 35.324219 C 23.410156 36.101562 24.257812 37.445312 21.859375 37.445312 C 21.082031 37.445312 19.25 36.949219 17.839844 36.386719 C 15.652344 35.46875 15.441406 35.46875 16.21875 36.386719 C 16.992188 37.304688 16.640625 37.445312 13.539062 37.445312 C 10.292969 37.445312 9.800781 37.234375 8.882812 35.46875 C 8.320312 34.40625 7.828125 33.84375 7.757812 34.125 C 7.757812 34.476562 8.109375 35.324219 8.460938 36.101562 C 9.167969 37.375 8.957031 37.445312 5.640625 37.445312 C 2.1875 37.445312 2.117188 37.375 2.890625 35.820312 C 4.371094 33.066406 16.5 12.363281 16.921875 12.011719 C 17.132812 11.800781 18.050781 10.101562 19.039062 8.265625 C 20.027344 6.359375 21.507812 4.027344 22.351562 3.109375 C 23.199219 2.191406 23.621094 1.273438 23.339844 1.058594 C 22.988281 0.917969 18.332031 8.125 12.972656 17.167969 Z M 38.78125 24.09375 C 38.78125 24.445312 38.148438 24.726562 37.371094 24.726562 C 36.03125 24.726562 35.539062 23.949219 36.382812 23.101562 C 36.949219 22.539062 38.78125 23.316406 38.78125 24.09375 Z M 45.832031 23.316406 C 45.832031 23.667969 45.339844 24.023438 44.707031 24.023438 C 44.140625 24.023438 43.859375 23.667969 44.070312 23.316406 C 44.28125 22.890625 44.777344 22.609375 45.199219 22.609375 C 45.550781 22.609375 45.832031 22.890625 45.832031 23.316406 Z M 42.730469 35.113281 C 43.222656 35.820312 43.71875 36.597656 43.71875 36.878906 C 43.71875 37.234375 40.472656 37.445312 36.527344 37.445312 C 29.472656 37.445312 29.332031 37.445312 31.027344 36.246094 C 32.507812 35.183594 35.117188 34.621094 40.828125 33.984375 C 41.390625 33.984375 42.238281 34.476562 42.730469 35.113281 Z M 42.730469 35.113281 "/>
<path style=" stroke:none;fill-rule:nonzero;fill:rgb(0%,0%,0%);fill-opacity:1;" d="M 25.03125 4.945312 C 25.667969 6.074219 26.300781 7.066406 26.511719 7.066406 C 26.652344 7.066406 26.371094 6.074219 25.738281 4.945312 C 25.101562 3.746094 24.46875 2.824219 24.257812 2.824219 C 24.117188 2.824219 24.398438 3.746094 25.03125 4.945312 Z M 25.03125 4.945312 "/>
<path style=" stroke:none;fill-rule:nonzero;fill:rgb(0%,0%,0%);fill-opacity:1;" d="M 228.882812 10.246094 C 220.917969 13.070312 217.8125 23.316406 222.398438 31.511719 C 227.050781 39.847656 241.578125 39.777344 246.511719 31.371094 C 247.429688 29.816406 248.207031 28.261719 248.207031 28.050781 C 248.207031 27.765625 246.867188 27.554688 245.171875 27.554688 C 242.777344 27.554688 241.789062 27.976562 240.238281 29.675781 C 238.542969 31.441406 237.628906 31.792969 235.019531 31.792969 C 231.140625 31.792969 229.519531 30.945312 228.109375 28.261719 C 224.371094 20.984375 229.941406 13.140625 237.207031 15.542969 C 238.542969 15.96875 240.167969 17.097656 240.730469 18.085938 C 241.648438 19.429688 242.492188 19.78125 245.03125 19.78125 C 246.792969 19.78125 248.207031 19.640625 248.207031 19.429688 C 248.207031 19.21875 247.78125 18.015625 247.21875 16.746094 C 244.679688 10.597656 236.21875 7.628906 228.882812 10.246094 Z M 228.882812 10.246094 "/>
<path style=" stroke:none;fill-rule:nonzero;fill:rgb(0%,0%,0%);fill-opacity:1;" d="M 259.132812 10.457031 C 254.128906 12.859375 251.730469 17.097656 251.730469 23.597656 C 251.730469 28.261719 252.578125 30.804688 255.117188 33.417969 C 257.867188 36.316406 260.542969 37.515625 264.421875 37.585938 C 267.878906 37.585938 269.78125 36.878906 271.757812 34.902344 C 272.8125 33.914062 272.882812 33.914062 272.882812 35.253906 C 272.882812 36.527344 273.308594 36.738281 276.058594 36.738281 L 279.230469 36.738281 L 279.230469 9.890625 L 276.058594 9.890625 C 273.308594 9.890625 272.882812 10.101562 272.882812 11.304688 C 272.882812 12.71875 272.882812 12.71875 270.839844 11.234375 C 267.949219 9.113281 262.730469 8.761719 259.132812 10.457031 Z M 268.582031 15.824219 C 271.898438 17.59375 273.238281 20.417969 272.957031 25.222656 C 272.882812 26.070312 271.898438 27.90625 270.699219 29.320312 C 268.867188 31.441406 268.019531 31.792969 265.550781 31.792969 C 262.097656 31.792969 259.910156 30.449219 258.359375 27.414062 C 255.679688 22.183594 259.628906 15.050781 265.339844 14.90625 C 266.042969 14.835938 267.527344 15.332031 268.582031 15.824219 Z M 268.582031 15.824219 "/>
<path style=" stroke:none;fill-rule:nonzero;fill:rgb(0%,0%,0%);fill-opacity:1;" d="M 341.421875 9.960938 C 338.109375 10.949219 333.738281 15.542969 332.75 19.21875 C 330.140625 29.039062 336.417969 37.65625 346.21875 37.65625 C 351.222656 37.65625 354.960938 35.890625 357.640625 32.21875 L 359.757812 29.320312 L 356.441406 29.109375 C 353.832031 28.898438 352.847656 29.179688 351.789062 30.308594 C 348.050781 34.335938 340.4375 32.359375 338.8125 26.988281 L 338.390625 25.433594 L 360.320312 25.433594 L 360.320312 22.75 C 360.25 13.425781 351.082031 7.207031 341.421875 9.960938 Z M 350.027344 15.542969 C 351.789062 16.179688 354.257812 19.925781 353.480469 20.773438 C 353.199219 20.984375 349.882812 21.195312 346.078125 21.195312 C 338.25 21.195312 337.542969 20.558594 341.210938 16.886719 C 343.398438 14.695312 346.570312 14.199219 350.027344 15.542969 Z M 350.027344 15.542969 "/>
<path style=" stroke:none;fill-rule:nonzero;fill:rgb(0%,0%,0%);fill-opacity:1;" d="M 485.410156 10.597656 C 475.75 15.472656 475.609375 31.441406 485.128906 36.386719 C 488.722656 38.222656 494.082031 37.941406 497.398438 35.679688 C 499.792969 34.054688 499.9375 34.054688 499.9375 35.324219 C 499.9375 36.527344 500.429688 36.738281 503.109375 36.738281 L 506.28125 36.738281 L 506.28125 9.890625 L 503.109375 9.890625 C 500.429688 9.890625 499.9375 10.101562 499.9375 11.304688 C 499.9375 13.070312 499.652344 13.070312 497.117188 11.234375 C 494.152344 9.042969 489.007812 8.761719 485.410156 10.597656 Z M 496.832031 17.027344 C 502.402344 22.253906 499.441406 31.792969 492.179688 31.792969 C 488.441406 31.792969 486.257812 30.308594 484.847656 26.777344 C 483.011719 22.253906 485.128906 16.957031 489.359375 15.332031 C 491.261719 14.554688 495.140625 15.472656 496.832031 17.027344 Z M 496.832031 17.027344 "/>
<path style=" stroke:none;fill-rule:nonzero;fill:rgb(0%,0%,0%);fill-opacity:1;" d="M 92.652344 11.65625 C 80.878906 17.59375 82.851562 35.183594 95.6875 38.222656 C 101.46875 39.566406 107.25 37.375 110.5625 32.5 L 112.257812 30.027344 L 108.941406 29.816406 C 106.261719 29.601562 105.417969 29.886719 104.640625 31.015625 C 103.441406 32.640625 99.632812 33.558594 96.882812 32.925781 C 94.488281 32.289062 91.667969 29.390625 91.667969 27.554688 C 91.667969 26.210938 92.089844 26.140625 102.597656 26.140625 L 113.527344 26.140625 L 113.242188 24.515625 C 113.03125 23.667969 112.75 21.832031 112.539062 20.488281 C 111.972656 17.167969 108.378906 12.859375 104.78125 11.234375 C 100.761719 9.398438 96.8125 9.539062 92.652344 11.65625 Z M 104.359375 17.378906 C 105.0625 18.15625 105.839844 19.429688 106.121094 20.277344 C 106.542969 21.902344 106.542969 21.902344 99.140625 21.902344 C 91.171875 21.902344 90.539062 21.550781 92.9375 18.652344 C 93.570312 17.804688 94.769531 16.746094 95.542969 16.320312 C 97.519531 15.191406 102.878906 15.824219 104.359375 17.378906 Z M 104.359375 17.378906 "/>
<path style=" stroke:none;fill-rule:nonzero;fill:rgb(0%,0%,0%);fill-opacity:1;" d="M 151.179688 10.597656 C 148.289062 11.515625 144.128906 16.179688 143.210938 19.570312 C 141.167969 26.847656 143.847656 34.195312 149.628906 37.164062 C 152.871094 38.859375 159.007812 38.648438 161.472656 36.808594 C 164.011719 34.972656 164.292969 34.972656 164.292969 36.738281 C 164.292969 37.941406 164.789062 38.152344 167.46875 38.152344 L 170.640625 38.152344 L 170.640625 10.597656 L 167.46875 10.597656 C 164.789062 10.597656 164.292969 10.808594 164.292969 12.011719 C 164.292969 13.777344 164.011719 13.777344 161.542969 11.941406 C 159.21875 10.246094 154.421875 9.609375 151.179688 10.597656 Z M 161.617188 18.15625 C 165.140625 21.550781 165.070312 26.847656 161.472656 30.449219 C 159.851562 32.074219 158.867188 32.5 156.398438 32.5 C 151.671875 32.429688 148.78125 29.390625 148.78125 24.375 C 148.78125 16.816406 156.398438 13.140625 161.617188 18.15625 Z M 161.617188 18.15625 "/>
<path style=" stroke:none;fill-rule:nonzero;fill:rgb(0%,0%,0%);fill-opacity:1;" d="M 285.578125 23.316406 L 285.578125 36.738281 L 291.851562 36.738281 L 292.0625 31.226562 L 292.277344 25.789062 L 301.441406 25.789062 L 301.652344 31.226562 L 301.867188 36.738281 L 308.140625 36.738281 L 308.140625 9.890625 L 301.792969 9.890625 L 301.792969 20.488281 L 291.921875 20.488281 L 291.921875 9.890625 L 285.578125 9.890625 Z M 285.578125 23.316406 "/>
<path style=" stroke:none;fill-rule:nonzero;fill:rgb(0%,0%,0%);fill-opacity:1;" d="M 312.371094 12.71875 L 312.371094 15.542969 L 318.011719 15.542969 L 318.011719 36.738281 L 324.359375 36.738281 L 324.359375 15.542969 L 326.828125 15.542969 C 329.222656 15.542969 329.292969 15.472656 329.292969 12.71875 L 329.292969 9.890625 L 312.371094 9.890625 Z M 312.371094 12.71875 "/>
<path style=" stroke:none;fill-rule:nonzero;fill:rgb(0%,0%,0%);fill-opacity:1;" d="M 367.722656 16.460938 L 372.167969 23.03125 L 368.289062 28.613281 C 362.4375 37.234375 362.507812 36.738281 366.597656 36.738281 C 370.121094 36.738281 370.121094 36.738281 373.011719 32.5 C 374.5625 30.167969 376.042969 28.261719 376.1875 28.261719 C 376.328125 28.261719 377.597656 30.167969 379.007812 32.5 L 381.542969 36.738281 L 389.300781 36.738281 L 384.648438 30.097656 C 382.109375 26.425781 380.0625 23.246094 380.0625 23.03125 C 380.0625 22.820312 381.96875 19.851562 384.367188 16.390625 L 388.597656 10.246094 L 385.707031 10.03125 C 381.617188 9.75 381.261719 9.960938 378.652344 14.414062 C 377.457031 16.601562 376.1875 18.226562 375.832031 18.015625 C 375.480469 17.804688 374.210938 15.898438 373.011719 13.777344 L 370.828125 9.890625 L 363.210938 9.890625 Z M 367.722656 16.460938 "/>
<path style=" stroke:none;fill-rule:nonzero;fill:rgb(0%,0%,0%);fill-opacity:1;" d="M 392.757812 23.316406 L 392.757812 36.738281 L 399.03125 36.738281 L 399.242188 31.226562 L 399.457031 25.789062 L 408.621094 25.789062 L 408.832031 31.226562 L 409.042969 36.738281 L 415.320312 36.738281 L 415.320312 9.890625 L 408.972656 9.890625 L 408.972656 20.488281 L 399.101562 20.488281 L 399.101562 9.890625 L 392.757812 9.890625 Z M 392.757812 23.316406 "/>
<path style=" stroke:none;fill-rule:nonzero;fill:rgb(0%,0%,0%);fill-opacity:1;" d="M 421.667969 23.316406 L 421.667969 36.738281 L 427.800781 36.738281 L 438.941406 20.347656 L 439.152344 28.542969 L 439.367188 36.738281 L 445.640625 36.738281 L 445.640625 9.820312 L 443.03125 10.03125 C 440.5625 10.246094 440.070312 10.738281 434.851562 18.015625 C 431.820312 22.253906 429.070312 25.859375 428.648438 26 C 428.292969 26.140625 428.011719 22.890625 428.011719 18.085938 L 428.011719 9.890625 L 421.667969 9.890625 Z M 421.667969 23.316406 "/>
<path style=" stroke:none;fill-rule:nonzero;fill:rgb(0%,0%,0%);fill-opacity:1;" d="M 451.988281 23.316406 L 451.988281 36.738281 L 458.332031 36.738281 L 458.332031 30.378906 C 458.332031 26.847656 458.542969 24.023438 458.898438 24.023438 C 459.179688 24.023438 461.292969 26.917969 463.621094 30.378906 L 467.851562 36.667969 L 471.589844 36.738281 C 473.5625 36.738281 475.257812 36.667969 475.257812 36.527344 C 475.257812 36.386719 473.070312 33.277344 470.320312 29.675781 C 466.089844 23.949219 465.527344 22.890625 466.300781 21.972656 C 469.050781 18.792969 475.257812 10.597656 475.257812 10.316406 C 475.257812 10.03125 473.777344 9.890625 471.871094 9.890625 L 468.558594 9.890625 L 463.621094 16.390625 L 458.6875 22.960938 L 458.472656 16.390625 L 458.261719 9.890625 L 451.988281 9.890625 Z M 451.988281 23.316406 "/>
<path style=" stroke:none;fill-rule:nonzero;fill:rgb(0%,0%,0%);fill-opacity:1;" d="M 18.6875 11.304688 C 18.472656 11.65625 18.617188 12.011719 18.96875 12.011719 C 19.390625 12.011719 19.742188 11.65625 19.742188 11.304688 C 19.742188 10.878906 19.601562 10.597656 19.460938 10.597656 C 19.25 10.597656 18.898438 10.878906 18.6875 11.304688 Z M 18.6875 11.304688 "/>
<path style=" stroke:none;fill-rule:nonzero;fill:rgb(0%,0%,0%);fill-opacity:1;" d="M 62.050781 24.375 L 62.050781 38.152344 L 65.789062 38.152344 C 77.070312 38.152344 81.089844 35.890625 81.089844 29.675781 C 81.089844 26.847656 80.738281 25.71875 79.042969 23.878906 C 77.351562 21.972656 76.507812 21.621094 72.699219 21.335938 L 68.398438 21.054688 L 68.398438 16.320312 L 73.898438 16.109375 L 79.328125 15.898438 L 79.539062 13.210938 L 79.75 10.597656 L 62.050781 10.597656 Z M 73.898438 26.988281 C 74.390625 27.484375 74.742188 28.472656 74.742188 29.320312 C 74.742188 31.441406 73.402344 32.5 70.722656 32.5 C 68.46875 32.5 68.398438 32.429688 68.398438 29.320312 C 68.398438 26.210938 68.46875 26.140625 70.722656 26.140625 C 71.992188 26.140625 73.402344 26.496094 73.898438 26.988281 Z M 73.898438 26.988281 "/>
<path style=" stroke:none;fill-rule:nonzero;fill:rgb(0%,0%,0%);fill-opacity:1;" d="M 120.367188 23.878906 C 117.757812 31.15625 115.640625 37.375 115.640625 37.65625 C 115.640625 37.941406 116.980469 38.152344 118.671875 38.152344 L 121.707031 38.152344 L 124.738281 28.898438 C 126.359375 23.808594 127.980469 19.851562 128.191406 20.136719 C 128.472656 20.417969 129.957031 24.445312 131.578125 29.179688 L 134.46875 37.800781 L 137.710938 38.011719 C 139.542969 38.152344 141.027344 38.152344 141.027344 38.011719 C 141.027344 37.871094 138.839844 31.722656 136.160156 24.375 L 131.292969 10.949219 L 128.191406 10.738281 L 125.019531 10.527344 Z M 120.367188 23.878906 "/>
<path style=" stroke:none;fill-rule:nonzero;fill:rgb(0%,0%,0%);fill-opacity:1;" d="M 180.867188 11.65625 C 179.3125 12.222656 177.972656 12.71875 177.902344 12.71875 C 177.832031 12.71875 177.269531 13.636719 176.632812 14.835938 C 174.308594 19.359375 176.070312 24.445312 180.582031 26.351562 L 182.628906 27.199219 L 178.75 32.148438 C 176.632812 34.832031 174.871094 37.375 174.871094 37.65625 C 174.871094 37.941406 176.351562 38.152344 178.1875 38.011719 C 181.5 37.800781 181.640625 37.65625 185.800781 32.21875 L 190.03125 26.636719 L 190.242188 32.429688 L 190.457031 38.152344 L 197.4375 38.152344 L 197.4375 10.597656 L 190.597656 10.597656 C 186.4375 10.667969 182.558594 11.09375 180.867188 11.65625 Z M 190.382812 19.074219 L 190.382812 22.609375 L 187.28125 22.609375 C 184.8125 22.609375 183.898438 22.253906 183.050781 21.054688 C 181.640625 19.003906 181.640625 18.652344 183.332031 16.957031 C 184.25 16.039062 185.660156 15.542969 187.5625 15.542969 L 190.382812 15.542969 Z M 190.382812 19.074219 "/>
<path style=" stroke:none;fill-rule:nonzero;fill:rgb(0%,0%,0%);fill-opacity:1;" d="M 25.171875 14.554688 C 25.667969 14.765625 26.230469 14.90625 26.511719 14.835938 C 26.792969 14.765625 27.289062 15.121094 27.640625 15.683594 C 28.207031 16.390625 28.277344 16.390625 27.992188 15.542969 C 27.851562 14.976562 27.007812 14.414062 26.019531 14.34375 C 25.101562 14.273438 24.75 14.34375 25.171875 14.554688 Z M 25.171875 14.554688 "/>
</g>
</svg>
