<svg width="512" height="512" viewBox="0 0 512 512" fill="none" xmlns="http://www.w3.org/2000/svg">
<path fill-rule="evenodd" clip-rule="evenodd" d="M350 63H162C154.82 63 149 68.8203 149 76V435C149 442.18 154.82 448 162 448H350C357.18 448 363 442.18 363 435V76C363 68.8203 357.18 63 350 63ZM162 56C150.954 56 142 64.9543 142 76V435C142 446.046 150.954 455 162 455H350C361.046 455 370 446.046 370 435V76C370 64.9543 361.046 56 350 56H162Z" fill="black"/>
<path fill-rule="evenodd" clip-rule="evenodd" d="M256 413C259.866 413 263 409.866 263 406C263 402.134 259.866 399 256 399C252.134 399 249 402.134 249 406C249 409.866 252.134 413 256 413ZM256 420C263.732 420 270 413.732 270 406C270 398.268 263.732 392 256 392C248.268 392 242 398.268 242 406C242 413.732 248.268 420 256 420Z" fill="black"/>
<path d="M231 80H280V81H231V80Z" fill="black"/>
</svg>
